<svg id="Forma_1_1_" xmlns="http://www.w3.org/2000/svg" viewBox="0 0 88 51"><style>.st0{fill-rule:evenodd;clip-rule:evenodd;fill:#999999;}</style><path class="st0" d="M83.1 3c-2.8 0-5.1 2.1-5.3 4.8l-1.4 19.3c-.1.8.2 1.7.8 2.3.6.6 1.4 1 2.3 1h.1l-.5 15.1c0 .6.2 1.3.7 1.7.5.5 1.1.7 1.8.7h2c1.3 0 2.5-1 2.5-2.4V5.9C86 4.3 84.7 3 83.1 3zm-71 0h-.2c-.5 0-.9.4-.9.9v8.5c0 .8-.6 1.4-1.4 1.4h-.2c-.8 0-1.4-.6-1.4-1.4V3.9c0-.5-.4-.9-.9-.9h-.2c-.5 0-.9.4-.9.9v8.5c0 .8-.6 1.4-1.4 1.4h-.2c-.8 0-1.4-.6-1.4-1.4V3.9c0-.5-.4-.9-.9-.9h-.2c-.5 0-.9.4-.9.9v12.9c0 1.6 1.3 2.8 2.9 2.8h.4l-.8 26c0 .6.2 1.3.7 1.7.5.5 1.1.7 1.8.7h1.9c.7 0 1.3-.2 1.8-.7.5-.5.7-1.1.7-1.7l-.8-26h.6c1.6 0 2.9-1.3 2.9-2.8V3.9c-.1-.5-.5-.9-1-.9zm55.7 16l-16.3-1.4-6.3-14.8c-.4-1-1.9-1-2.4 0l-6.4 14.8L20.2 19c-1.1.1-1.6 1.5-.7 2.2l12.4 10.6-3.7 15.7c-.3 1.1.9 1.9 1.9 1.4l14-8.3 14 8.3c1 .6 2.2-.3 1.9-1.4l-3.7-15.7 12.4-10.6c.7-.7.3-2.1-.9-2.2z" id="Forma_1"/></svg>