<svg xmlns="http://www.w3.org/2000/svg" preserveAspectRatio="xMidYMid" width="13" height="13" viewBox="0 0 13 13"><defs><style>.cls-1 { fill: #fff; fill-rule: evenodd; }</style></defs><path d="M12.037 9.797c.025.196-.034.366-.18.51l-1.695 1.685c-.076.085-.176.158-.3.217-.122.06-.244.097-.363.114-.01 0-.035.002-.077.007-.043.005-.098.007-.166.007-.16 0-.423-.028-.784-.083-.36-.055-.803-.19-1.326-.408-.523-.217-1.116-.543-1.78-.977C4.706 10.434 4 9.84 3.253 9.08c-.595-.587-1.088-1.148-1.48-1.685-.39-.536-.705-1.03-.943-1.487-.24-.455-.417-.868-.536-1.238-.12-.37-.2-.69-.242-.957-.043-.268-.06-.48-.05-.632l.01-.255c.018-.12.057-.24.116-.364.06-.123.132-.223.217-.3L2.04.467c.12-.12.256-.18.41-.18.11 0 .207.033.292.097.085.063.157.142.217.236l1.363 2.59c.076.137.098.286.064.448-.034.16-.107.297-.217.408l-.625.625c-.017.018-.032.046-.044.084-.012.04-.02.07-.02.096.035.18.112.383.23.613.103.204.26.453.473.747.212.293.514.63.905 1.014.382.392.722.696 1.02.913.297.217.546.376.746.48.2.1.353.162.46.183l.158.032c.017 0 .045-.006.083-.02.038-.012.066-.026.083-.043l.727-.742c.153-.136.33-.204.535-.204.145 0 .26.026.344.077h.013l2.46 1.456c.18.11.286.25.32.42z" class="cls-1"/></svg>