<svg xmlns="http://www.w3.org/2000/svg" preserveAspectRatio="xMidYMid" width="19" height="18" viewBox="0 0 19 18"><defs><style>.cls-1 { fill: #ffcb3c; fill-rule: evenodd; }</style></defs><path d="M17.952 6.218h-5.145L10.177.406c-.227-.502-1.05-.502-1.277 0L6.27 6.218H1.124c-.29 0-.548.176-.652.446-.106.268-.036.574.176.77l3.813 3.525-1.667 6.145c-.074.275.025.566.25.74.225.173.533.19.78.05l5.712-3.315 5.714 3.316c.11.062.23.095.35.095.153 0 .303-.05.428-.145.226-.174.325-.465.25-.74l-1.666-6.146 3.814-3.525c.21-.197.282-.503.176-.77-.105-.27-.364-.447-.652-.447" class="cls-1"/></svg>