<svg xmlns="http://www.w3.org/2000/svg" preserveAspectRatio="xMidYMid" width="20" height="18" viewBox="0 0 20 18"><defs><style>.cls-1 { fill: #b6b6b6; fill-rule: evenodd; }</style></defs><path d="M18.45 6.218h-5.145L10.675.406c-.227-.502-1.052-.502-1.278 0l-2.63 5.812H1.622c-.29 0-.547.176-.652.446-.106.268-.036.574.177.77L4.96 10.96l-1.666 6.145c-.075.275.024.566.25.74.225.173.532.19.778.05l5.714-3.315 5.713 3.316c.108.062.23.095.35.095.152 0 .302-.05.428-.145.225-.174.324-.465.25-.74L15.11 10.96l3.815-3.525c.212-.197.282-.503.176-.77-.103-.27-.362-.447-.65-.447" class="cls-1"/></svg>