<svg xmlns="http://www.w3.org/2000/svg" preserveAspectRatio="xMidYMid" width="16" height="15" viewBox="0 0 16 15"><defs><style>.cls-1 { fill: #fff; fill-rule: evenodd; }</style></defs><path d="M15.308 3.62c-.695.674-1.345 1.332-1.867 1.86-.34.345-.61.618-.8.802-.297.288-.753.427-1.25.38-.05-.004-.1-.01-.15-.018-.38-.064-.743-.232-1.05-.487L8.63 7.69c-.064.062-.152.086-.235.073-.056-.01-.11-.036-.152-.08-.105-.108-.103-.28.006-.386l1.557-1.532c-.763-.918-.817-1.913-.117-2.59L12.43.52c.108-.105.28-.103.387.006.105.108.103.28-.006.386L10.43 3.22l.475.472 2.202-2.132c.11-.106.282-.103.388.005.105.11.102.282-.006.387L11.29 4.08l.486.485 2.19-2.12c.11-.105.282-.103.387.006.106.11.103.282-.005.387l-2.184 2.115.517.516.367-.372c.525-.53 1.177-1.19 1.876-1.868.11-.105.282-.102.388.006.105.108.103.282-.006.387zM11.692 14.05c-.263.417-.715.65-1.152.595-.228-.03-.565-.15-.878-.567-.49-.653-1.105-1.915-1.7-3.136-.44-.907-.895-1.84-1.264-2.444-.06.038-.11.068-.157.095-.13.08-.244.147-.585.38-.125.085-.27.12-.418.1-.305-.04-.837.03-1.668-2.027-.41-1.01-1.608-4.527-1.76-5.158C1.85.832 1.925.655 2.047.535c.07-.068.26-.128.417.062 1.138 1.37 8.732 11.346 9.25 12.14.252.384.243.887-.023 1.31zM5.494 9.674l.592.4c.113.102.08.8.448.537-.8.9-2.545 2.942-3.325 3.632-.313.276-.7.352-1.06.292-.327-.054-.633-.218-.85-.446-.383-.404-.58-1.13.13-1.845.975-.983 2.395-2.096 3.464-2.9.12-.09.508.21.6.33z" class="cls-1"/></svg>